<svg data-name="Layer 1" id="Layer_1" viewBox="0 0 1210.3 1022.67"
    xmlns="http://www.w3.org/2000/svg">
    <defs>
        <style>
            .cls-1{fill:#ececec;}.cls-2{fill:#e7e7e7;}.cls-3{fill:#fafafa;}.cls-4{fill:#f0f0f0;}.cls-5{fill:#e1e1e1;}.cls-6{fill:#f5f5f5;}.cls-11,.cls-7{fill:#007cff;}.cls-16,.cls-20,.cls-24,.cls-8{opacity:0.2;}.cls-11,.cls-12,.cls-8{isolation:isolate;}.cls-12,.cls-13,.cls-14,.cls-15,.cls-16,.cls-17,.cls-27,.cls-9{fill:#fff;}.cls-10{opacity:0.1;}.cls-12,.cls-14{opacity:0.4;}.cls-13,.cls-28{opacity:0.3;}.cls-15,.cls-26{opacity:0.6;}.cls-17,.cls-18{opacity:0.5;}.cls-19{fill:#e67b62;}.cls-21{fill:#1a2e35;}.cls-22{fill:#d54c38;}.cls-23{fill:#ba221f;}.cls-25{fill:#cd5b51;}.cls-27{opacity:0.7;}
        </style>
    </defs>
    <title>merketing</title>
    <rect class="cls-1" height="0.77" width="26.88" x="835.05" y="942.88" />
    <rect class="cls-1" height="0.77" width="133.55" y="910.97" />
    <rect class="cls-1" height="0.77" width="19.58" x="161.08" y="910.97" />
    <rect class="cls-1" height="0.77" width="289.65" x="244.31" y="924.02" />
    <polygon class="cls-2"
        points="241.84 68.55 264.41 54.08 276.72 77.89 303.5 76.64 302.25 103.42 326.06 115.73 311.59 138.29 326.06 160.86 302.25 173.17 303.5 199.94 276.72 198.7 264.41 222.51 241.84 208.04 219.28 222.51 206.97 198.7 180.19 199.94 181.44 173.17 157.63 160.86 172.1 138.29 157.63 115.73 181.44 103.42 180.19 76.64 206.97 77.89 219.28 54.08 241.84 68.55" />
    <path class="cls-3"
        d="M337.5,1055.26l-26.81-26.81a7.85,7.85,0,0,1,0-11.11h0a7.85,7.85,0,0,1,11.11,0L337.5,1033l32.8-32.8a7.85,7.85,0,0,1,11.11,0h0a7.86,7.86,0,0,1,0,11.12Z"
        transform="translate(-104.2 -882.52)" />
    <polygon class="cls-2"
        points="1080.35 305.21 1098.05 293.87 1107.7 312.54 1128.69 311.56 1127.72 332.56 1146.39 342.21 1135.05 359.91 1146.39 377.61 1127.72 387.26 1128.69 408.25 1107.7 407.28 1098.05 425.95 1080.35 414.6 1062.65 425.95 1053 407.28 1032.01 408.25 1032.98 387.26 1014.31 377.61 1025.65 359.91 1014.31 342.21 1032.98 332.56 1032.01 311.56 1053 312.54 1062.65 293.87 1080.35 305.21" />
    <path class="cls-3"
        d="M1177.85,1269.44l-21-21a6.18,6.18,0,0,1,0-8.72h0a6.18,6.18,0,0,1,8.72,0l12.31,12.31,25.72-25.72a6.15,6.15,0,0,1,8.71,0h0a6.16,6.16,0,0,1,0,8.72Z"
        transform="translate(-104.2 -882.52)" />
    <path class="cls-2"
        d="M348.33,1484.57l34.48,17.59a14.64,14.64,0,0,0,17.36-3.06l26.39-28.32a14.64,14.64,0,0,0,3.7-12.53l-13.71-77.77a23.37,23.37,0,0,0-27.08-19l-43.66,7.7a23.36,23.36,0,0,0-19,27.07l13.71,77.78A14.63,14.63,0,0,0,348.33,1484.57Zm39.27-6a7.34,7.34,0,1,1-6,8.51A7.34,7.34,0,0,1,387.6,1478.55Z"
        transform="translate(-104.2 -882.52)" />
    <rect class="cls-3" height="7.32" transform="translate(907.43 1931.01) rotate(170)" width="67.76" x="348.86"
        y="1447.36" />
    <rect class="cls-3" height="7.32" transform="translate(873.85 1805.69) rotate(170)" width="67.76" x="337.55"
        y="1383.23" />
    <path class="cls-4"
        d="M466.17,981.08l23.72,25.46a13.16,13.16,0,0,0,15.61,2.75l31-15.81a13.18,13.18,0,0,0,7-9.44l12.33-69.93a21,21,0,0,0-17.05-24.34l-39.26-6.93a21,21,0,0,0-24.34,17l-12.33,69.93A13.14,13.14,0,0,0,466.17,981.08Zm35,7a6.6,6.6,0,1,1-7.65,5.35A6.59,6.59,0,0,1,501.2,988.07Z"
        transform="translate(-104.2 -882.52)" />
    <rect class="cls-3" height="6.58" transform="translate(731.96 1117.26) rotate(-170)" width="60.92" x="475.1"
        y="960.02" />
    <rect class="cls-3" height="6.58" transform="translate(762.15 1004.59) rotate(-170)" width="60.92" x="485.27"
        y="902.37" />
    <path class="cls-1"
        d="M1040.85,905.64h0a28.93,28.93,0,0,0-40.3-7.1l-12.26,8.58-8.58-12.26a28.94,28.94,0,0,0-40.31-7.1h0a28.93,28.93,0,0,0-7.1,40.3l41.78,59.66L1033.74,946A29,29,0,0,0,1040.85,905.64Z"
        transform="translate(-104.2 -882.52)" />
    <path class="cls-1"
        d="M1126.62,911.21h0a14.16,14.16,0,0,0-19.73-3.48l-6,4.2-4.2-6a14.18,14.18,0,0,0-19.74-3.48h0a14.17,14.17,0,0,0-3.47,19.73l20.45,29.21,29.21-20.45A14.16,14.16,0,0,0,1126.62,911.21Z"
        transform="translate(-104.2 -882.52)" />
    <path class="cls-5"
        d="M212.13,1195.1a78.3,78.3,0,0,0-53.68,96.83c7.75,27,55.08,72.25,87.31,100.66a26.25,26.25,0,0,0,42.5-12.19c12.28-41.17,28.44-104.63,20.7-131.62A78.28,78.28,0,0,0,212.13,1195.1Zm31.54,110a36.13,36.13,0,1,1,24.77-44.7A36.14,36.14,0,0,1,243.67,1305.09Z"
        transform="translate(-104.2 -882.52)" />
    <path class="cls-6"
        d="M224.37,1191.59a78.28,78.28,0,0,0-53.67,96.83c7.74,27,55.07,72.25,87.3,100.66a26.26,26.26,0,0,0,42.51-12.19c12.28-41.17,28.44-104.63,20.7-131.62A78.29,78.29,0,0,0,224.37,1191.59Zm31.54,110a36.13,36.13,0,1,1,24.78-44.7A36.13,36.13,0,0,1,255.91,1301.58Z"
        transform="translate(-104.2 -882.52)" />
    <path class="cls-5"
        d="M1126,996.18a68.16,68.16,0,0,0-84.31,46.74c-6.74,23.51,7.33,78.77,18,114.61a22.85,22.85,0,0,0,37,10.61c28.06-24.73,69.28-64.13,76-87.64A68.17,68.17,0,0,0,1126,996.18ZM1098.5,1092a31.46,31.46,0,1,1,38.92-21.58A31.47,31.47,0,0,1,1098.5,1092Z"
        transform="translate(-104.2 -882.52)" />
    <path class="cls-6"
        d="M1136.62,999.24a68.16,68.16,0,0,0-84.31,46.74c-6.74,23.5,7.33,78.76,18,114.61a22.86,22.86,0,0,0,37,10.61c28.06-24.73,69.28-64.14,76-87.64A68.17,68.17,0,0,0,1136.62,999.24ZM1109.16,1095a31.46,31.46,0,1,1,38.92-21.57A31.47,31.47,0,0,1,1109.16,1095Z"
        transform="translate(-104.2 -882.52)" />
    <ellipse class="cls-6" cx="610.8" cy="987.66" data-name="&lt;Path&gt;" id="_Path_" rx="599.51"
        ry="35.01" />
    <path class="cls-7"
        d="M524.84,1165.77h33.09a11.56,11.56,0,0,1,11.7,12.82l-6.1,69.79a14.27,14.27,0,0,1-13.95,12.82H516.49a11.56,11.56,0,0,1-11.7-12.82l6.1-69.79A14.27,14.27,0,0,1,524.84,1165.77Z"
        transform="translate(-104.2 -882.52)" />
    <path class="cls-8"
        d="M895,1150.86h51.7a18.07,18.07,0,0,1,18.29,20l-6.37,72.86a22.31,22.31,0,0,1-21.8,20H885.07a18.07,18.07,0,0,1-18.28-20l6.37-72.86A22.31,22.31,0,0,1,895,1150.86Z"
        transform="translate(-104.2 -882.52)" />
    <path class="cls-8"
        d="M884.36,1272h51.71a18.07,18.07,0,0,1,18.29,20L948,1364.85a22.3,22.3,0,0,1-21.79,20H874.48a18.07,18.07,0,0,1-18.29-20l6.38-72.86A22.3,22.3,0,0,1,884.36,1272Z"
        transform="translate(-104.2 -882.52)" />
    <path class="cls-7"
        d="M617.63,1014.23H905.69c40,0,69.63,32.45,66.13,72.48l-61.45,702.41c-3.5,40-38.79,72.48-78.82,72.48H543.49c-40,0-69.64-32.45-66.14-72.48l61.46-702.41C542.31,1046.68,577.6,1014.23,617.63,1014.23Z"
        transform="translate(-104.2 -882.52)" />
    <path class="cls-8"
        d="M617.63,1014.23H905.69c40,0,69.63,32.45,66.13,72.48l-61.45,702.41c-3.5,40-38.79,72.48-78.82,72.48H543.49c-40,0-69.64-32.45-66.14-72.48l61.46-702.41C542.31,1046.68,577.6,1014.23,617.63,1014.23Z"
        transform="translate(-104.2 -882.52)" />
    <path class="cls-7"
        d="M608.33,1014.23H896.39c40,0,69.64,32.45,66.14,72.48l-61.45,702.41c-3.5,40-38.79,72.48-78.82,72.48H534.2c-40,0-69.64-32.45-66.14-72.48l61.46-702.41C533,1046.68,568.31,1014.23,608.33,1014.23Z"
        transform="translate(-104.2 -882.52)" />
    <path class="cls-9"
        d="M953.89,1086.71,892.44,1789.1c-3.08,35.25-34.17,63.83-69.42,63.83H535c-35.26,0-61.34-28.58-58.25-63.83l61.45-702.39c3.08-35.26,34.16-63.84,69.42-63.84H895.64C930.89,1022.87,957,1051.45,953.89,1086.71Z"
        transform="translate(-104.2 -882.52)" />
    <g class="cls-10">
        <path d="M535,1852.93h109.2l176.43-830.06H681.45l-174.94,823A59.84,59.84,0,0,0,535,1852.93Z"
            transform="translate(-104.2 -882.52)" />
        <polygon points="783.18 140.35 756.69 140.35 580.26 970.41 606.75 970.41 783.18 140.35" />
    </g>
    <path class="cls-7"
        d="M667.17,1020.82a18.51,18.51,0,0,0,18.67,20.45H814.16a22.87,22.87,0,0,0,22.25-20.45Z"
        transform="translate(-104.2 -882.52)" />
    <path class="cls-7"
        d="M890.41,1045.49h29.12a4,4,0,0,1,4,4.39l-1.11,12.7a4.89,4.89,0,0,1-4.78,4.4H888.53a4,4,0,0,1-4-4.4l1.11-12.7A4.91,4.91,0,0,1,890.41,1045.49Z"
        transform="translate(-104.2 -882.52)" />
    <path class="cls-11"
        d="M579.42,1045.49h39a4.48,4.48,0,0,1,4.54,5l-1,11.55a5.53,5.53,0,0,1-5.41,5h-39a4.48,4.48,0,0,1-4.54-5l1-11.55A5.53,5.53,0,0,1,579.42,1045.49Z"
        transform="translate(-104.2 -882.52)" />
    <path class="cls-12"
        d="M579.42,1045.49h39a4.48,4.48,0,0,1,4.54,5l-1,11.55a5.53,5.53,0,0,1-5.41,5h-39a4.48,4.48,0,0,1-4.54-5l1-11.55A5.53,5.53,0,0,1,579.42,1045.49Z"
        transform="translate(-104.2 -882.52)" />
    <path class="cls-7"
        d="M882.64,1049.16h4.58a1.46,1.46,0,0,1,1.48,1.61l-1,10.93a1.79,1.79,0,0,1-1.76,1.61H881.4a1.45,1.45,0,0,1-1.47-1.61l1-10.93A1.79,1.79,0,0,1,882.64,1049.16Z"
        transform="translate(-104.2 -882.52)" />
    <path class="cls-9"
        d="M913.77,1049.16h4.58a1.45,1.45,0,0,1,1.47,1.61l-1,10.93a1.78,1.78,0,0,1-1.75,1.61h-4.58a1.45,1.45,0,0,1-1.47-1.61l1-10.93A1.8,1.8,0,0,1,913.77,1049.16Z"
        transform="translate(-104.2 -882.52)" />
    <path class="cls-9"
        d="M903.9,1049.16h4.58a1.45,1.45,0,0,1,1.48,1.61l-1,10.93a1.79,1.79,0,0,1-1.75,1.61h-4.58a1.46,1.46,0,0,1-1.48-1.61l1-10.93A1.79,1.79,0,0,1,903.9,1049.16Z"
        transform="translate(-104.2 -882.52)" />
    <path class="cls-7"
        d="M955.64,1243.27l-6.28,71.82a14.33,14.33,0,0,0,11.55-12.59l4.08-46.64A11.52,11.52,0,0,0,955.64,1243.27Z"
        transform="translate(-104.2 -882.52)" />
    <path class="cls-8"
        d="M955.64,1243.27l-6.28,71.82a14.33,14.33,0,0,0,11.55-12.59l4.08-46.64A11.52,11.52,0,0,0,955.64,1243.27Z"
        transform="translate(-104.2 -882.52)" />
    <path class="cls-7"
        d="M962.42,1165.77l-6.28,71.83a14.35,14.35,0,0,0,11.55-12.6l4.08-46.63A11.53,11.53,0,0,0,962.42,1165.77Z"
        transform="translate(-104.2 -882.52)" />
    <path class="cls-8"
        d="M962.42,1165.77l-6.28,71.83a14.35,14.35,0,0,0,11.55-12.6l4.08-46.63A11.53,11.53,0,0,0,962.42,1165.77Z"
        transform="translate(-104.2 -882.52)" />
    <path class="cls-7"
        d="M787.68,1072.22H691.34c-16.12,0-30.33,13.07-31.74,29.19l-5,57c-1.42,16.12,10.51,29.19,26.63,29.19h27.57l-1.95,22.19c-.48,5.51,5.94,8.27,10.18,4.38l28.89-26.57h31.65c16.12,0,30.33-13.07,31.75-29.19l5-57C815.73,1085.29,803.8,1072.22,787.68,1072.22Z"
        transform="translate(-104.2 -882.52)" />
    <path class="cls-9"
        d="M758.89,1099.49H712.64c-.12-3.84-.18-5.75-.31-9.58H686.89c.35,2.19.52,3.28.87,5.47h18.36c.11,1.64.16,2.46.27,4.11l1.3,20.24c.15,2.19.22,3.29.36,5.47.52,8.1.78,12.15,1.31,20.25l.7,10.82h50.78c.69-2.19,1-3.29,1.74-5.48H714.26c-.06-2.13-.1-3.2-.17-5.34h52.56c2.7-8.1,4.06-12.15,6.77-20.25.73-2.18,1.09-3.28,1.83-5.47,2.7-8.1,4.06-12.15,6.77-20.24ZM712.81,1105h16.38c-.33,5.91-.5,8.86-.84,14.77H713.28C713.09,1113.82,713,1110.87,712.81,1105Zm1.11,35c-.19-5.91-.28-8.87-.47-14.78H728c-.33,5.91-.5,8.87-.84,14.78Zm31.45,0H732.1c.54-5.91.8-8.87,1.34-14.78H748Zm3.64-20.25H733.93c.53-5.91.8-8.86,1.34-14.77h16.39ZM763.56,1140H750.29c1.25-5.91,1.88-8.87,3.14-14.78H768Zm6.1-20.25H754.59c1.25-5.91,1.88-8.86,3.14-14.77h16.38Z"
        transform="translate(-104.2 -882.52)" />
    <path class="cls-9"
        d="M712.77,1161.4a7.24,7.24,0,0,0-7.07,6.5,5.86,5.86,0,0,0,5.93,6.5,7.23,7.23,0,0,0,7.07-6.5A5.86,5.86,0,0,0,712.77,1161.4Z"
        transform="translate(-104.2 -882.52)" />
    <path class="cls-9"
        d="M759,1161.4a7.23,7.23,0,0,0-7.07,6.5,5.86,5.86,0,0,0,5.93,6.5,7.23,7.23,0,0,0,7.07-6.5A5.86,5.86,0,0,0,759,1161.4Z"
        transform="translate(-104.2 -882.52)" />
    <rect class="cls-7" height="110.17" width="110.17" x="642.54" y="593.39" />
    <rect class="cls-7" height="110.17" width="67.65" x="752.68" y="593.39" />
    <polygon class="cls-7"
        points="731.65 565.75 621.48 565.75 642.54 593.39 752.68 593.39 731.65 565.75" />
    <rect class="cls-13" height="110.17" width="67.65" x="752.68" y="593.39" />
    <polygon class="cls-14"
        points="731.65 565.75 621.48 565.75 642.54 593.39 752.68 593.39 731.65 565.75" />
    <polygon class="cls-7"
        points="772.62 565.75 840.27 565.75 820.36 593.39 752.68 593.39 772.62 565.75" />
    <rect class="cls-15" height="110.17" width="110.17" x="642.54" y="593.39" />
    <polygon class="cls-16"
        points="772.62 565.75 840.27 565.75 820.36 593.39 752.68 593.39 772.62 565.75" />
    <rect class="cls-7" height="277.66" width="277.66" x="785.02" y="700.83" />
    <rect class="cls-14" height="277.66" width="277.66" x="785.02" y="700.83" />
    <rect class="cls-7" height="277.66" width="170.55" x="614.43" y="700.83" />
    <rect class="cls-15" height="277.66" width="170.55" x="614.43" y="700.83" />
    <polygon class="cls-17"
        points="667.1 700.83 667.1 775.41 673.88 778.98 679.72 774.11 688.96 778.98 697.73 774.11 704.55 778.98 712.35 774.11 716.76 778.1 716.76 700.83 667.1 700.83" />
    <polygon class="cls-17"
        points="716.76 978.49 716.76 903.91 709.98 900.34 704.13 905.21 694.9 900.34 686.13 905.21 679.31 900.34 671.51 905.21 667.1 901.22 667.1 978.49 716.76 978.49" />
    <path class="cls-9"
        d="M1002.49,1696.58c1.57,6.34,2.36,9.52,3.92,15.87.43,1.71.64,2.57,1.06,4.29,1.57,6.34,2.35,9.52,3.92,15.87h41.19l-.5,4.18h-37.87c.4,1.72.6,2.58,1,4.29H1055c.51-3.39.77-5.08,1.29-8.47,1-6.35,1.44-9.53,2.41-15.87l.65-4.29c1-6.35,1.45-9.53,2.42-15.87.19-1.29.29-1.93.49-3.22h14.39c.42-1.72.63-2.58,1.06-4.29h-20c-.36,3-.54,4.5-.89,7.51h-54.39Zm52.5,15.87h-11.82l.35-11.58h12.85C1055.81,1705.5,1055.54,1707.81,1055,1712.45Zm-12.3,15.87.35-11.58h11.44c-.56,4.63-.83,6.94-1.39,11.58Zm-15.32-11.58h11.44c0,4.63,0,6.94,0,11.58h-10.4C1028,1723.68,1027.8,1721.37,1027.37,1716.74Zm-1.45-15.87h12.84c0,4.63,0,6.94,0,11.58H1027C1026.55,1707.81,1026.34,1705.5,1025.92,1700.87Zm-14.21,15.87h11.43l1.45,11.58h-10.4C1013.19,1723.68,1012.7,1721.37,1011.71,1716.74Zm-3.4-15.87h12.85c.58,4.63.87,6.94,1.44,11.58h-11.81C1009.8,1707.81,1009.3,1705.5,1008.31,1700.87Z"
        transform="translate(-104.2 -882.52)" />
    <circle class="cls-9" cx="948.32" cy="867.68" r="5.09" />
    <circle class="cls-9" cx="912.13" cy="867.68" r="5.09" />
    <g class="cls-18">
        <path class="cls-9"
            d="M766.29,1696.58c1.57,6.34,2.36,9.52,3.92,15.87.43,1.71.64,2.57,1.06,4.29,1.57,6.34,2.35,9.52,3.92,15.87h41.19l-.5,4.18H778c.4,1.72.6,2.58,1,4.29h39.81c.51-3.39.77-5.08,1.29-8.47,1-6.35,1.44-9.53,2.41-15.87l.65-4.29c1-6.35,1.45-9.53,2.42-15.87.19-1.29.29-1.93.49-3.22h14.39c.42-1.72.63-2.58,1.06-4.29H821.57c-.36,3-.54,4.5-.89,7.51H766.29Zm52.5,15.87H807l.35-11.58h12.85C819.61,1705.5,819.34,1707.81,818.79,1712.45Zm-12.3,15.87.35-11.58h11.43c-.55,4.63-.82,6.94-1.38,11.58Zm-15.32-11.58h11.44c0,4.63,0,6.94,0,11.58h-10.4C791.81,1723.68,791.6,1721.37,791.17,1716.74Zm-1.45-15.87h12.84c0,4.63,0,6.94,0,11.58H790.78C790.35,1707.81,790.14,1705.5,789.72,1700.87Zm-14.21,15.87h11.43l1.45,11.58H778C777,1723.68,776.5,1721.37,775.51,1716.74Zm-3.4-15.87H785c.58,4.63.87,6.94,1.44,11.58H774.59C773.6,1707.81,773.1,1705.5,772.11,1700.87Z"
            transform="translate(-104.2 -882.52)" />
        <circle class="cls-9" cx="712.12" cy="867.68" r="5.09" />
        <circle class="cls-9" cx="675.93" cy="867.68" r="5.09" />
    </g>
    <path class="cls-19"
        d="M1065.51,1362.41s9.63,69.22,18.29,81.15,47.57,45,47.57,45l24.57-3.58,16.48,15.59-11.92,8.27-13.14-5.9a126.88,126.88,0,0,1-22.34.54c-12.54-.78-61.58-33.91-70.62-51.35s-19.23-81.57-19.23-81.57Z"
        transform="translate(-104.2 -882.52)" />
    <path class="cls-7"
        d="M1073.75,1382.41l-2.45.44c-1.71-16.26-8.52-65.69-27.14-53-17.91,12.2-12.89,46.85-10.28,59.81l-3,.54,2.73,8.54,41.2-7.9Z"
        transform="translate(-104.2 -882.52)" />
    <path class="cls-20"
        d="M1058.2,1349.71l-4.53-9.74-14.27,14.33-8.17,12.35a136.46,136.46,0,0,0,2.65,23l-3,.54,2.73,8.54,23.23-4.45A158.26,158.26,0,0,0,1058.2,1349.71Z"
        transform="translate(-104.2 -882.52)" />
    <path class="cls-21" d="M1059.63,1225.5s49.16,10.61,23,34l-21.58-18.9Z"
        transform="translate(-104.2 -882.52)" />
    <polygon class="cls-19"
        points="1023.66 862.09 992.38 938.74 970.68 930.3 988.17 854.11 1023.66 862.09" />
    <polygon class="cls-8"
        points="989.71 848.7 977.38 902.4 1004.12 908.37 1025.21 856.65 989.71 848.7" />
    <path class="cls-21"
        d="M1101.61,1819.47c4,9,6.66,16.5,23,26.17,3.56,2-2.45,11.44-11.32,7.47-14.65-6.62-10.82-6.75-23.39-12.2-10.55-4.65-18.38-7.47-27-11.05a2.43,2.43,0,0,1-.62-.37l0,0a3.43,3.43,0,0,1-.69-4.81l12.68-17.35a2.06,2.06,0,0,1,2.51-.7l20.54,8.85A8.35,8.35,0,0,1,1101.61,1819.47Z"
        transform="translate(-104.2 -882.52)" />
    <path class="cls-21"
        d="M1197.91,1564.47c-4,49.5-75,213-75,213l-42.18-11.75s32.22-157.11,53.25-183.11c0,0-6.87.12-17.91.21-38.43.34-127.51.28-153.21-6.55-18.33-4.89-56.64-14.69-46.53-76l47.49-1.64,55.32-1.92S1203.38,1496.85,1197.91,1564.47Z"
        transform="translate(-104.2 -882.52)" />
    <path class="cls-8"
        d="M1116,1582.83c-38.43.34-127.51.28-153.21-6.55-18.33-4.89-56.64-14.69-46.53-76l47.49-1.64c37.38,4.42,86.24,11.81,119.54,26.13,16.2,7,27.46,19.51,30.76,34.29C1115,1563.36,1115.75,1573.78,1116,1582.83Z"
        transform="translate(-104.2 -882.52)" />
    <polygon class="cls-19"
        points="950.32 859.38 934.68 937.51 911.16 936.41 913.95 858.27 950.32 859.38" />
    <polygon class="cls-8"
        points="950.32 859.38 913.95 858.27 912.32 905 940.98 906.01 950.32 859.38" />
    <path class="cls-21"
        d="M1042.48,1821.87c3.83,9.39,6.33,17.06,22.65,27.4,3.54,2.29-2.89,11.71-11.76,7.33-14.72-7.2-10.82-7.19-23.44-13.13-10.68-5.06-18.54-8.18-27.18-12.09l-.67-.33h0a3.53,3.53,0,0,1-.61-5l13.45-17.35a2.11,2.11,0,0,1,2.58-.61l20.58,9.62A8.32,8.32,0,0,1,1042.48,1821.87Z"
        transform="translate(-104.2 -882.52)" />
    <path class="cls-21"
        d="M888.66,1500.19s-13.43,48.31,8.8,67.39c31.08,26.71,143.35,18.58,143.35,18.58-19.39,62.08-28,185.36-28,185.36h42.09s57.31-168.65,48.84-212.25-158.86-59-158.86-59Z"
        transform="translate(-104.2 -882.52)" />
    <polygon class="cls-7"
        points="972.75 888.09 1020.49 900.12 1030.22 879.68 977.78 864.82 972.75 888.09" />
    <polygon class="cls-7"
        points="904.37 894.87 953.07 897.37 958.14 875.95 904.37 873.45 904.37 894.87" />
    <path class="cls-7"
        d="M1030.92,1433.28c12.25-36.44,27.85-64.18,29.6-95.26-42.33-61.1-125.09-25-125.09-25-50.1,94-46.77,187.16-46.77,187.16,113.83,0,120.35-1.94,120.35-1.94S1009.43,1482.15,1030.92,1433.28Z"
        transform="translate(-104.2 -882.52)" />
    <path class="cls-8"
        d="M992.69,1311.24c1.83,10.74,5.63,30.16,10.14,33,6.27,3.76,15.54-1.5,15.54-1.5s7.5,10.16,15.52,3.39a42.85,42.85,0,0,0,10.19-15.21,43.87,43.87,0,0,1-8.75,10.63c-8,6.75-15.55-3.38-15.55-3.38s-9.27,5.23-15.53,1.5C1000.2,1337.21,995.45,1321.83,992.69,1311.24Z"
        transform="translate(-104.2 -882.52)" />
    <polygon class="cls-7" points="898.69 413.87 910 417.75 901.14 425.49 898.69 413.87" />
    <polygon class="cls-20" points="898.69 413.87 910 417.75 901.14 425.49 898.69 413.87" />
    <path class="cls-19"
        d="M1038.77,1308l3.13,9.12s-16.13,16.88-20.77,17.07-18.24-31.74-18.24-31.74c18-8.13,16.31-17.07,16.31-17.07Z"
        transform="translate(-104.2 -882.52)" />
    <path class="cls-8"
        d="M1032.9,1325.92c4.76-4.35,9-8.79,9-8.79l-3.13-9.12-17.47-20.19C1019.07,1296.61,1016.84,1315,1032.9,1325.92Z"
        transform="translate(-104.2 -882.52)" />
    <path class="cls-7"
        d="M1048,1323.71a53.35,53.35,0,0,1-12.63,18c-8,6.75-15.55-3.38-15.55-3.38s-9.24,5.23-15.5,1.5-14.11-38-14.11-38l12.7-5.47,17.5,37,23.61-19.5Z"
        transform="translate(-104.2 -882.52)" />
    <path class="cls-19"
        d="M1018.5,1254.2a31.3,31.3,0,0,1,46.8-27.35c22.43,12.1,23,47.41,16.38,68.11a31,31,0,0,1-53.82,10.43c-11-13.54-9.6-27.44-9.3-51.26Z"
        transform="translate(-104.2 -882.52)" />
    <path class="cls-21"
        d="M1060.32,1269c1.3.11,2.08,1.88,1.76,3.77s-1.49,3.17-2.76,3-2.08-1.88-1.76-3.76S1059,1268.86,1060.32,1269Z"
        transform="translate(-104.2 -882.52)" />
    <path class="cls-21"
        d="M1081.76,1273c1.3.14,2.11,1.84,1.79,3.76s-1.49,3.18-2.79,3-2-1.84-1.77-3.76S1080.46,1272.84,1081.76,1273Z"
        transform="translate(-104.2 -882.52)" />
    <path class="cls-21"
        d="M1054.58,1264.46a8.74,8.74,0,0,1,7.89-1.47h0a1.1,1.1,0,0,0,1.4-.69h0a1.17,1.17,0,0,0-.68-1.43,11,11,0,0,0-10.16,2h0a1.1,1.1,0,0,0-.15,1.55,1.22,1.22,0,0,0,.5.24A1,1,0,0,0,1054.58,1264.46Z"
        transform="translate(-104.2 -882.52)" />
    <path class="cls-21"
        d="M1087.15,1270.48h0a1.13,1.13,0,0,0,.36-1.54,11.54,11.54,0,0,0-8.62-5.86h0a1.1,1.1,0,0,0-1,.84v0a1.14,1.14,0,0,0,.85,1.37,9.47,9.47,0,0,1,6.91,4.87,1.1,1.1,0,0,0,.89.57A1.08,1.08,0,0,0,1087.15,1270.48Z"
        transform="translate(-104.2 -882.52)" />
    <path class="cls-22" d="M1069,1294.08a11.19,11.19,0,0,0,9.35,0,73.78,73.78,0,0,1-6.24-18.16Z"
        transform="translate(-104.2 -882.52)" />
    <path class="cls-21"
        d="M1017,1269.63c-9.24-33.73,5.73-42.51,21.93-48.54s25.17-.26,30.35,5.43c1.61,1.77,4.84,7.16-5.56,7.88A81.59,81.59,0,0,1,1045,1233a6.74,6.74,0,0,0-6.6,2.59c-3.59,4.68-9.39,13.46-9.33,21.15a19.93,19.93,0,0,1-6,15.84Z"
        transform="translate(-104.2 -882.52)" />
    <path class="cls-7" d="M1005.35,1439h0a4.09,4.09,0,1,1-4.12,4.06A4.08,4.08,0,0,1,1005.38,1439Z"
        transform="translate(-104.2 -882.52)" />
    <path class="cls-7" d="M996.42,1482.15h.07a4.09,4.09,0,1,1-.07,0Z"
        transform="translate(-104.2 -882.52)" />
    <path class="cls-19"
        d="M1017.29,1261.91c6.54,1.19,9.68,10.44,9.75,16.5.07,6.51-4.64,11.4-10.42,7.53a21.07,21.07,0,0,1-8.64-12.79C1006.7,1266.72,1010.75,1260.72,1017.29,1261.91Z"
        transform="translate(-104.2 -882.52)" />
    <path class="cls-21"
        d="M1047.22,1293.73s5.81,1.21,20.57,8c-3.78,3.64-8.67,5.77-16.2,2.21S1047.22,1293.73,1047.22,1293.73Z"
        transform="translate(-104.2 -882.52)" />
    <path class="cls-23"
        d="M1056.71,1302.09a15.21,15.21,0,0,0-9.23-1.65,8.87,8.87,0,0,0,4.11,3.51c3.63,1.72,6.62,2.12,9.2,1.65A8.67,8.67,0,0,0,1056.71,1302.09Z"
        transform="translate(-104.2 -882.52)" />
    <path class="cls-9"
        d="M1048,1293.91a3.37,3.37,0,0,0,1.29,3.27,86.65,86.65,0,0,0,13.57,4.91,4.53,4.53,0,0,0,4.34-.64C1055.77,1296.24,1049.88,1294.43,1048,1293.91Z"
        transform="translate(-104.2 -882.52)" />
    <rect class="cls-21" height="8.99" transform="translate(2086.79 2156.29) rotate(-179.69)" width="55.98" x="1071.57"
        y="1511.98" />
    <path class="cls-21"
        d="M1000.79,1511.66h74.06a1.36,1.36,0,0,1,1.36,1.36v7.62a0,0,0,0,1,0,0h-75.42a0,0,0,0,1,0,0v-9A0,0,0,0,1,1000.79,1511.66Z"
        transform="translate(1964.67 2155.31) rotate(-179.69)" />
    <path class="cls-13"
        d="M1000.79,1511.66h74.06a1.36,1.36,0,0,1,1.36,1.36v7.62a0,0,0,0,1,0,0h-75.42a0,0,0,0,1,0,0v-9A0,0,0,0,1,1000.79,1511.66Z"
        transform="translate(1964.67 2155.31) rotate(-179.69)" />
    <rect class="cls-21" height="3.19" transform="matrix(-1, -0.01, 0.01, -1, 2008.45, 2155.68)" width="8.99" x="1055.91"
        y="1514.67" />
    <rect class="cls-21" height="3.19" transform="translate(1980.39 2155.49) rotate(-179.69)" width="8.99" x="1041.9"
        y="1514.6" />
    <polygon class="cls-21"
        points="982.71 629.4 976.74 629.36 1000.55 548.27 1006.52 548.3 982.71 629.4" />
    <polygon class="cls-13"
        points="982.71 629.4 976.74 629.36 1000.55 548.27 1006.52 548.3 982.71 629.4" />
    <polygon class="cls-21"
        points="980.51 629.38 1085.54 629.95 1109.36 548.85 1004.32 548.29 980.51 629.38" />
    <polygon class="cls-15"
        points="980.51 629.38 1085.54 629.95 1109.36 548.85 1004.32 548.29 980.51 629.38" />
    <path class="cls-21"
        d="M1079.57,1511.88l109.34.58c1.84,0,3.32,2,3.31,4.51s-1.52,4.49-3.36,4.48l-109.34-.59c-1.84,0-3.32-2-3.31-4.51S1077.73,1511.87,1079.57,1511.88Z"
        transform="translate(-104.2 -882.52)" />
    <path class="cls-17"
        d="M1079.57,1511.88l109.34.58c1.84,0,3.32,2,3.31,4.51s-1.52,4.49-3.36,4.48l-109.34-.59c-1.84,0-3.32-2-3.31-4.51S1077.73,1511.87,1079.57,1511.88Z"
        transform="translate(-104.2 -882.52)" />
    <path class="cls-21"
        d="M1076.21,1516.35c0,2.48,1.47,4.5,3.31,4.51s3.35-2,3.36-4.47-1.47-4.5-3.31-4.51S1076.22,1513.87,1076.21,1516.35Z"
        transform="translate(-104.2 -882.52)" />
    <path class="cls-13"
        d="M1076.21,1516.35c0,2.48,1.47,4.5,3.31,4.51s3.35-2,3.36-4.47-1.47-4.5-3.31-4.51S1076.22,1513.87,1076.21,1516.35Z"
        transform="translate(-104.2 -882.52)" />
    <path class="cls-20"
        d="M973,1436.8c-5-6.94-10.4-32.6-14.14-53.8l4.85-.93-1.14-8.77-2.55.46c-1.75-16.59-8.61-66.41-27.21-55.61-5.39,10.53-10.15,21.09-14.31,31.54-.65,12.2,1.31,24.46,2.66,31.15l-3.07.56,2.83,8.87,6.57-1.26c3.94,20.48,9.65,46.37,15,56.65,7,13.49,37,36,57.26,47,22.67-4,27.88-6.87,27.88-6.87A11.94,11.94,0,0,1,1026,1483l-3.66.53S982,1449.19,973,1436.8Z"
        transform="translate(-104.2 -882.52)" />
    <path class="cls-19"
        d="M967.43,1352.84s6.62,72.29,15,85.08,47.15,49,47.15,49l25.66-2.52,16.34,17-12.77,8-13.35-6.76a131.78,131.78,0,0,1-23.19-.53c-13-1.42-62.23-38.17-70.76-56.71s-16-85.55-16-85.55Z"
        transform="translate(-104.2 -882.52)" />
    <path class="cls-7"
        d="M973.18,1368.44l-2.55.47c-1.78-16.89-8.84-68.23-28.19-55-18.59,12.67-13.38,48.66-10.67,62.11l-3.07.56,2.83,8.88,42.79-8.21Z"
        transform="translate(-104.2 -882.52)" />
    <path class="cls-7"
        d="M1195.16,1329.66h-60.71a18.39,18.39,0,0,0-18.4,18.39v36a18.39,18.39,0,0,0,18.4,18.39h17.37v14a3.9,3.9,0,0,0,6.65,2.76l16.75-16.75h19.94a18.39,18.39,0,0,0,18.4-18.39v-36A18.39,18.39,0,0,0,1195.16,1329.66Z"
        transform="translate(-104.2 -882.52)" />
    <path class="cls-9"
        d="M1180.47,1346.84h-29.15c-.29-2.41-.43-3.62-.72-6h-16c.34,1.38.52,2.07.86,3.45H1147c.16,1,.23,1.56.39,2.59.78,5.1,1.17,7.66,1.94,12.76.21,1.38.32,2.07.53,3.45.77,5.1,1.16,7.65,1.94,12.76.41,2.72.62,4.09,1,6.81h32c.32-1.37.47-2.06.79-3.44h-30.45l-.4-3.37h33.12l3.15-12.76.85-3.45,3.15-12.76Zm-28.74,3.45h10.33c.11,3.72.17,5.58.28,9.31h-9.5C1152.4,1355.87,1152.18,1354,1151.73,1350.29Zm2.63,22.07c-.44-3.73-.66-5.59-1.11-9.31h9.19c.11,3.72.17,5.58.28,9.31Zm19.82,0h-8.36c0-3.73,0-5.59,0-9.31H1175C1174.7,1366.77,1174.53,1368.63,1174.18,1372.36Zm1.18-12.76h-9.5c0-3.73,0-5.59,0-9.31h10.33Zm10.29,12.76h-8.37c.47-3.73.7-5.59,1.17-9.31h9.19C1186.84,1366.77,1186.44,1368.63,1185.65,1372.36Zm2.72-12.76h-9.49c.46-3.73.69-5.59,1.16-9.31h10.33Z"
        transform="translate(-104.2 -882.52)" />
    <path class="cls-9" d="M1154.82,1385.86a4.1,4.1,0,1,0,4.09,4.09A4.1,4.1,0,0,0,1154.82,1385.86Z"
        transform="translate(-104.2 -882.52)" />
    <circle class="cls-9" cx="1079.72" cy="507.43" r="4.1" />
    <path class="cls-21"
        d="M347.73,1616.22l-7.4-.39,1.76-33.51c1.2-22.81,20.72-41.36,43.53-41.36a39.25,39.25,0,0,1,39.56,41.75l-1.75,33.51-7.4-.39,1.75-33.51a31.85,31.85,0,0,0-32.16-34c-18.93,0-35.14,15.41-36.13,34.35Z"
        transform="translate(-104.2 -882.52)" />
    <polygon class="cls-7"
        points="402.07 718.8 183.53 718.8 176.13 978.06 208.53 970.65 240.94 978.06 409.48 978.06 402.07 718.8" />
    <polygon class="cls-15"
        points="402.07 718.8 183.53 718.8 176.13 978.06 208.53 970.65 240.94 978.06 409.48 978.06 402.07 718.8" />
    <polygon class="cls-7"
        points="240.94 978.06 208.53 970.65 176.13 978.06 183.53 718.8 233.54 718.8 240.94 978.06" />
    <polygon class="cls-13"
        points="240.94 978.06 208.53 970.65 176.13 978.06 183.53 718.8 233.54 718.8 240.94 978.06" />
    <path class="cls-21"
        d="M460,1616.22l-1.75-33.51c-1-18.94-17.2-34.35-36.14-34.35a31.87,31.87,0,0,0-32.16,34l1.76,33.51-7.4.39-1.76-33.51A39.25,39.25,0,0,1,422.1,1541c22.81,0,42.34,18.55,43.54,41.36l1.75,33.51Z"
        transform="translate(-104.2 -882.52)" />
    <g class="cls-24">
        <path class="cls-9"
            d="M460,1616.22l-1.75-33.51c-1-18.94-17.2-34.35-36.14-34.35a31.87,31.87,0,0,0-32.16,34l1.76,33.51-7.4.39-1.76-33.51A39.25,39.25,0,0,1,422.1,1541c22.81,0,42.34,18.55,43.54,41.36l1.75,33.51Z"
            transform="translate(-104.2 -882.52)" />
    </g>
    <rect class="cls-9" height="24.69" rx="1.34" width="109.88" x="266.79" y="813.5" />
    <path class="cls-21"
        d="M247.3,1696.77l-5-.26,1.17-22.47a29.6,29.6,0,0,1,29.19-27.72,26.31,26.31,0,0,1,26.52,28L298,1696.77l-5-.26,1.18-22.47a21.37,21.37,0,0,0-21.56-22.76,24.56,24.56,0,0,0-24.22,23Z"
        transform="translate(-104.2 -882.52)" />
    <polygon class="cls-7"
        points="249.37 804.26 102.88 804.26 97.91 978.06 119.64 973.09 141.36 978.06 254.34 978.06 249.37 804.26" />
    <polygon class="cls-7"
        points="141.36 978.06 119.64 973.09 97.91 978.06 102.88 804.26 136.4 804.26 141.36 978.06" />
    <polygon class="cls-20"
        points="141.36 978.06 119.64 973.09 97.91 978.06 102.88 804.26 136.4 804.26 141.36 978.06" />
    <path class="cls-21"
        d="M322.55,1696.77l-1.17-22.47a24.57,24.57,0,0,0-24.23-23A21.37,21.37,0,0,0,275.59,1674l1.18,22.47-5,.26-1.18-22.47a26.31,26.31,0,0,1,26.52-28A29.58,29.58,0,0,1,326.34,1674l1.18,22.47Z"
        transform="translate(-104.2 -882.52)" />
    <g class="cls-24">
        <path class="cls-9"
            d="M322.55,1696.77l-1.17-22.47a24.57,24.57,0,0,0-24.23-23A21.37,21.37,0,0,0,275.59,1674l1.18,22.47-5,.26-1.18-22.47a26.31,26.31,0,0,1,26.52-28A29.58,29.58,0,0,1,326.34,1674l1.18,22.47Z"
            transform="translate(-104.2 -882.52)" />
    </g>
    <rect class="cls-9" height="16.55" rx="1.34" width="73.66" x="158.69" y="867.74" />
    <polygon class="cls-25"
        points="368.63 961.1 345.1 958.64 346.26 903.67 369.8 906.13 368.63 961.1" />
    <polygon class="cls-25"
        points="567.71 882.23 546.62 892.97 514.98 847.6 536.06 836.86 567.71 882.23" />
    <path class="cls-21"
        d="M646.44,1772.56l21.64-15.43a1.87,1.87,0,0,1,2.48.22l14.68,15.36a3.81,3.81,0,0,1-.65,5.63c-7.63,5.25-11.59,7.4-21.1,14.19-5.86,4.17-14,10.88-22.06,16.65-7.91,5.64-14.22-1.92-11.37-5,12.78-14,12-20.19,14-28.09A6.2,6.2,0,0,1,646.44,1772.56Z"
        transform="translate(-104.2 -882.52)" />
    <path class="cls-21"
        d="M447.3,1838.2l26.44,2.76a1.88,1.88,0,0,1,1.71,1.8l.82,21.23a3.8,3.8,0,0,1-4.21,3.79c-9.2-1.12-13.58-2.12-25.21-3.34-7.15-.75-27.77-2.15-37.65-3.18-9.66-1-9.38-10.86-5.18-11.31,18.86-2,32.44-6.15,39.2-10.72A6.15,6.15,0,0,1,447.3,1838.2Z"
        transform="translate(-104.2 -882.52)" />
    <g class="cls-24">
        <polygon points="346.27 903.69 345.66 932.02 369.2 934.48 369.81 906.15 346.27 903.69" />
        <polygon points="536.08 836.87 514.99 847.61 531.31 871 552.4 860.25 536.08 836.87" />
    </g>
    <path class="cls-21"
        d="M461.73,1311.27s-24.4,181.58-25.12,253.74c-.76,75.06,8.78,243.56,8.78,243.56l31.82,3.33s12.91-165.73,18.06-239.31c5.61-80.21,36.79-259.1,36.79-259.1Z"
        transform="translate(-104.2 -882.52)" />
    <polygon class="cls-7"
        points="375.64 930.8 338.31 926.9 336.81 914.71 378.78 917.62 375.64 930.8" />
    <path class="cls-26"
        d="M501.73,1357.9c-25.09,46.71-9,133.87-1.64,166.34C505.9,1476,515,1417.11,522,1373.86,519.16,1349.18,513.3,1336.37,501.73,1357.9Z"
        transform="translate(-104.2 -882.52)" />
    <path class="cls-21"
        d="M487.09,1312.07s15.79,190.07,30.3,251.39c17.23,72.8,110.55,187.78,110.55,187.78l28.75-14.65s-63.23-127.77-76.94-166.26c-29.27-82.17,1.79-202.26-22-256Z"
        transform="translate(-104.2 -882.52)" />
    <polygon class="cls-7"
        points="556.56 853.89 520.89 872.05 511.38 862.78 552.38 839.51 556.56 853.89" />
    <path class="cls-7"
        d="M638.15,1782.27l-.29,0a3.17,3.17,0,0,1-2.48-1.88,1.91,1.91,0,0,1,0-1.93c1.52-2.61,10.06-3,11-3a.56.56,0,0,1,.44.93C644.84,1778.61,641.09,1782.36,638.15,1782.27Zm6.94-5.69c-3.41.26-8,1-8.75,2.41a.8.8,0,0,0,0,.85,2.1,2.1,0,0,0,1.63,1.29C639.6,1781.32,642.21,1779.64,645.09,1776.58Z"
        transform="translate(-104.2 -882.52)" />
    <path class="cls-7"
        d="M645.61,1776.52c-2.94-.09-8.29-1.66-9.29-3.89a2,2,0,0,1,.63-2.37,3,3,0,0,1,2.36-.77c3.42.37,7.4,5.89,7.57,6.13a.52.52,0,0,1,0,.55.56.56,0,0,1-.45.33A6.09,6.09,0,0,1,645.61,1776.52ZM639,1770.6a1.77,1.77,0,0,0-1.32.49c-.53.49-.47.83-.36,1.08.68,1.51,5.09,3.08,8,3.23-1.43-1.77-4.08-4.58-6.12-4.79Z"
        transform="translate(-104.2 -882.52)" />
    <path class="cls-7"
        d="M438,1841.38c-2.34-.24-4.46-.83-5.56-2a3.08,3.08,0,0,1-.72-2.82,1.79,1.79,0,0,1,1.1-1.38c3-1.28,11.93,4.49,12.93,5.15a.56.56,0,0,1,.23.61.55.55,0,0,1-.49.42A39.39,39.39,0,0,1,438,1841.38Zm-3.69-5.3a2.19,2.19,0,0,0-1.06.09.69.69,0,0,0-.43.57,2,2,0,0,0,.45,1.85c1.29,1.43,5.14,2.06,10.45,1.74C440.69,1838.44,436.58,1836.31,434.35,1836.08Z"
        transform="translate(-104.2 -882.52)" />
    <path class="cls-7"
        d="M445.42,1841.32a.58.58,0,0,1-.22-.08c-2.68-1.56-7.7-7.21-7-9.83.17-.62.7-1.36,2.26-1.36a4.07,4.07,0,0,1,3,1.29c2.7,2.77,2.58,9.16,2.58,9.43a.57.57,0,0,1-.29.48A.55.55,0,0,1,445.42,1841.32Zm-4.61-10.13-.34,0c-1,0-1.13.4-1.17.53-.43,1.58,2.92,6,5.6,8-.08-1.87-.47-5.75-2.24-7.57A3,3,0,0,0,440.81,1831.19Z"
        transform="translate(-104.2 -882.52)" />
    <path class="cls-25"
        d="M451.6,1214.72a237.83,237.83,0,0,1-29.33,32.47,112.55,112.55,0,0,1-18.49,14.14,51.39,51.39,0,0,1-12.53,5.57,30.15,30.15,0,0,1-8.62,1.17,24.1,24.1,0,0,1-5.14-.6,26.12,26.12,0,0,1-2.67-.78,21.42,21.42,0,0,1-2.95-1.33,18.09,18.09,0,0,1-5.6-4.8,21.84,21.84,0,0,1-2.81-4.79,30.65,30.65,0,0,1-2.12-7.79,65.18,65.18,0,0,1-.45-12.52,153.78,153.78,0,0,1,3-22,287.72,287.72,0,0,1,11.63-41l12.8,3.32c-1.85,13.46-3.54,27.17-4.56,40.47a165.88,165.88,0,0,0-.5,19.39,41.9,41.9,0,0,0,1,8.18,7.57,7.57,0,0,0,.79,2.16c.17.3,0-.66-1.81-1.81-.63-.31-.43-.26-.57-.31a1,1,0,0,0-.16-.1c-.06-.06-.1-.06,0-.1a11.72,11.72,0,0,0,1.6-.5,32.15,32.15,0,0,0,6.16-3.38A113,113,0,0,0,404.21,1228c4.61-4.46,9-9.34,13.41-14.3s8.72-10.2,12.69-15.09Z"
        transform="translate(-104.2 -882.52)" />
    <path class="cls-7"
        d="M446.44,1180.68c-9.7-2.67-38.42,34-38.42,34l27.46,30.63s32.2-29,31-42.08C465.21,1189.66,460.6,1184.58,446.44,1180.68Z"
        transform="translate(-104.2 -882.52)" />
    <path class="cls-25"
        d="M388.6,1172.28,387.52,1153,369,1168.29s2.8,14.94,12.18,17.9l5.79-8.12A9.14,9.14,0,0,0,388.6,1172.28Z"
        transform="translate(-104.2 -882.52)" />
    <polygon class="cls-25"
        points="271.25 254.68 256.39 268.32 264.75 285.77 283.32 270.48 271.25 254.68" />
    <path class="cls-21"
        d="M367.89,1174.45l-4.28-1.56a5.24,5.24,0,0,1-3.36-5.89l6.53-34.69,11.71,4.26-3.6,33.52A5.23,5.23,0,0,1,367.89,1174.45Z"
        transform="translate(-104.2 -882.52)" />
    <path class="cls-21"
        d="M398.8,1130.37c.73-2,1.42-4,2.1-5.95-1.84-3.43-5.49-7.11-10.37-10.65q-2.34,5.73-4.61,11.92t-4.13,12.09c6,.43,11.17,0,14.79-1.49Q397.69,1133.38,398.8,1130.37Z"
        transform="translate(-104.2 -882.52)" />
    <path class="cls-7"
        d="M391,1127.56a74.16,74.16,0,0,0,3.92-14.9l-38.44-14-10.46,28.73,38.46,14A74,74,0,0,0,391,1127.56Z"
        transform="translate(-104.2 -882.52)" />
    <path class="cls-15"
        d="M391,1127.56a74.16,74.16,0,0,0,3.92-14.9l-38.44-14-10.46,28.73,38.46,14A74,74,0,0,0,391,1127.56Z"
        transform="translate(-104.2 -882.52)" />
    <path class="cls-7"
        d="M366.51,1099.61c-1.75-.64-43.18-43.37-47.93-45.1-5.05-1.84-15.86,15.12-24.15,37.87s-10.9,42.68-5.85,44.52c4.75,1.73,64-4.36,65.71-3.72,2.06.75,6.46-6.16,9.84-15.43S368.57,1100.36,366.51,1099.61Z"
        transform="translate(-104.2 -882.52)" />
    <path class="cls-14"
        d="M366.51,1099.61c-1.75-.64-43.18-43.37-47.93-45.1-5.05-1.84-15.86,15.12-24.15,37.87s-10.9,42.68-5.85,44.52c4.75,1.73,64-4.36,65.71-3.72,2.06.75,6.46-6.16,9.84-15.43S368.57,1100.36,366.51,1099.61Z"
        transform="translate(-104.2 -882.52)" />
    <path class="cls-7"
        d="M312.73,1099c-8.28,22.75-19.09,39.7-24.15,37.86s-2.43-21.77,5.85-44.52,19.1-39.71,24.15-37.87S321,1076.29,312.73,1099Z"
        transform="translate(-104.2 -882.52)" />
    <path class="cls-21"
        d="M300.5,1094.59c-.54,1.5-1.06,3-1.56,4.47,1.92,2.78,5.54,5.86,10.28,8.9,1.2-2.85,2.38-5.82,3.51-8.92s2.14-6.14,3-9.09c-5.59-.72-10.34-.69-13.6.2Q301.33,1092.32,300.5,1094.59Z"
        transform="translate(-104.2 -882.52)" />
    <path class="cls-27"
        d="M300.5,1094.59c-.54,1.5-1.06,3-1.56,4.47,1.92,2.78,5.54,5.86,10.28,8.9,1.2-2.85,2.38-5.82,3.51-8.92s2.14-6.14,3-9.09c-5.59-.72-10.34-.69-13.6.2Q301.33,1092.32,300.5,1094.59Z"
        transform="translate(-104.2 -882.52)" />
    <path class="cls-20"
        d="M438.34,1202.24c1.42,20.56-3.39,32.8-6.77,38.71l3.91,4.36s18.16-16.39,26.69-30.07C452.58,1201,436.84,1180.64,438.34,1202.24Z"
        transform="translate(-104.2 -882.52)" />
    <circle class="cls-21" cx="442.21" cy="179.43" r="23.34" />
    <path class="cls-7"
        d="M543.91,1072.6a14.66,14.66,0,1,1-14.66-14.66A14.66,14.66,0,0,1,543.91,1072.6Z"
        transform="translate(-104.2 -882.52)" />
    <path class="cls-21"
        d="M482.61,1054.38s-31-2.54-31,50.65c0,36.42,17.69,53.28,39.38,41,0,0,47.81-3.93,53.31-47.67S516,1038.34,482.61,1054.38Z"
        transform="translate(-104.2 -882.52)" />
    <path class="cls-7"
        d="M440.11,1182.1s-10.95,4.78,21.63,141.6l95.84-7c-4.45-38.89-6.24-62.94,6.58-144.34a283.73,283.73,0,0,0-41.08-2.41c-16.19.4-29.44.84-43.52,3.17C461,1176.22,440.11,1182.1,440.11,1182.1Z"
        transform="translate(-104.2 -882.52)" />
    <path class="cls-25"
        d="M515.2,1121.31c-1.72,14.2-2.6,40,7.88,48.68,0,0-2.8,14.49-28.82,16.38-28.61,2.08-14.7-13.21-14.7-13.21,15.34-4.87,14.1-16.42,10.59-27.1Z"
        transform="translate(-104.2 -882.52)" />
    <path class="cls-20"
        d="M505,1131.4,490.16,1146a44.56,44.56,0,0,1,1.9,7.63c5.9-1.29,13.62-8.44,13.8-14.73A21.13,21.13,0,0,0,505,1131.4Z"
        transform="translate(-104.2 -882.52)" />
    <path class="cls-25"
        d="M531.21,1097.67c-5.36,22.86-7.14,32.65-20.83,42.52-20.6,14.84-47.51,3.25-49.08-20.75-1.42-21.61,7.59-55.36,31.77-60.69C516.9,1053.49,536.58,1074.81,531.21,1097.67Z"
        transform="translate(-104.2 -882.52)" />
    <path class="cls-21"
        d="M491.8,1097.52c-.32,1.88-1.57,3.23-2.8,3s-2-1.9-1.65-3.79,1.58-3.23,2.81-3S492.12,1095.63,491.8,1097.52Z"
        transform="translate(-104.2 -882.52)" />
    <path class="cls-21"
        d="M470.54,1093.89c-.32,1.88-1.58,3.23-2.81,3s-2-1.9-1.64-3.79,1.58-3.23,2.81-3S470.86,1092,470.54,1093.89Z"
        transform="translate(-104.2 -882.52)" />
    <path class="cls-21" d="M469.42,1090.3l-4.29-2.08S466.84,1092.15,469.42,1090.3Z"
        transform="translate(-104.2 -882.52)" />
    <path class="cls-23" d="M478,1098.39s-4.58,7.56-8.76,10.86c2.09,2.75,6.49,2.41,6.49,2.41Z"
        transform="translate(-104.2 -882.52)" />
    <path class="cls-25"
        d="M533.86,1119.92a17.19,17.19,0,0,1-10.43,7.94c-5.83,1.5-8.61-3.75-6.89-9.18,1.56-4.89,6.47-11.56,12.27-10.65S536.62,1115.09,533.86,1119.92Z"
        transform="translate(-104.2 -882.52)" />
    <path class="cls-21"
        d="M501.08,1094.64a1.11,1.11,0,0,1-1.05-.79c-1.53-4.95-7.86-7.07-7.93-7.09a1.13,1.13,0,0,1-.71-1.42,1.11,1.11,0,0,1,1.41-.71c.3.1,7.5,2.51,9.37,8.56a1.12,1.12,0,0,1-.74,1.4A1.1,1.1,0,0,1,501.08,1094.64Z"
        transform="translate(-104.2 -882.52)" />
    <path class="cls-21"
        d="M465.83,1083a1.12,1.12,0,0,1-.54-2.09,11.13,11.13,0,0,1,10.21-.68,1.12,1.12,0,0,1-1,2h0a8.86,8.86,0,0,0-8.08.62A1.08,1.08,0,0,1,465.83,1083Z"
        transform="translate(-104.2 -882.52)" />
    <path class="cls-21" d="M490.68,1093.93l-4.29-2.08S488.1,1095.78,490.68,1093.93Z"
        transform="translate(-104.2 -882.52)" />
    <path class="cls-21"
        d="M477.64,1117.48s6.22-1.75,23.87-2.6c-1.81,5.41-5.46,9.93-14.51,10.28S477.64,1117.48,477.64,1117.48Z"
        transform="translate(-104.2 -882.52)" />
    <path class="cls-23"
        d="M491,1120.78c-4.37.17-7.48,1.32-9.73,3a9.58,9.58,0,0,0,5.73,1.32c4.36-.17,7.45-1.29,9.7-3A9.5,9.5,0,0,0,491,1120.78Z"
        transform="translate(-104.2 -882.52)" />
    <path class="cls-9"
        d="M478.43,1117.29c.56,1.11,1.11,2.22,2.9,2.5,3.69.08,13.05-1.42,15.56-2.07a5,5,0,0,0,3.86-2.8C487.16,1115.61,480.56,1116.83,478.43,1117.29Z"
        transform="translate(-104.2 -882.52)" />
    <path class="cls-21"
        d="M465.29,1080.88s11.87-4.82,17.74-13.9c0,0,.11,16.46,6.72,15.2s-3.36-15.21-3.36-15.21,15.49,6.85,20.74,20.29,11.31,28,23.23,24.41,9.29-41.67-8.28-51.16l-24.86-4.45-7.28,1.06a27.68,27.68,0,0,0-10.56,3.82h0a27.74,27.74,0,0,0-11,12.71Z"
        transform="translate(-104.2 -882.52)" />
    <path class="cls-7"
        d="M523,1082.87c-1.14-2.41-6.62-2.21-12.24.44s-5.86,5.16-4.71,7.58,3.22,3.82,8.84,1.16S524.17,1085.28,523,1082.87Zm-13.26,6.27c-.82-1.72-.65-3.51,3.37-5.41s7.93-2,8.74-.32-1.77,4.66-5.79,6.56S510.58,1090.87,509.77,1089.14Z"
        transform="translate(-104.2 -882.52)" />
    <path class="cls-20"
        d="M553.59,1204.14l-7.26-6.25-5.39,2.42s-4.35,26.74,13.7,54c.47-10.29,1.44-21.89,3.06-35.75C555.44,1210.23,553.59,1204.14,553.59,1204.14Z"
        transform="translate(-104.2 -882.52)" />
    <path class="cls-21"
        d="M651.56,1279.47l-3.92.41-1.86-17.73a23.46,23.46,0,0,1,19.4-25.32,20.86,20.86,0,0,1,24.23,18.62l1.87,17.73-3.92.41-1.86-17.73a16.93,16.93,0,0,0-19.7-15.14,19.46,19.46,0,0,0-16.11,21Z"
        transform="translate(-104.2 -882.52)" />
    <path class="cls-25"
        d="M578.68,1200c.53,2.66,1.3,5.94,2,9s1.54,6.14,2.41,9.18c1.73,6.09,3.55,12.14,5.75,18,4.39,11.65,9.7,22.88,16.66,31.86l.66.83.32.42a3.2,3.2,0,0,0-.37-.36,5.14,5.14,0,0,0-1.7-1c-.93-.27-.9,0-.29,0a20.83,20.83,0,0,0,6.41-1.35A113.82,113.82,0,0,0,627.1,1259c11.23-6.11,22.57-13.24,33.56-20.4l8.55,10.09a242.2,242.2,0,0,1-31.31,27.41A115.93,115.93,0,0,1,619,1287.44a43.77,43.77,0,0,1-13,3.9,22.51,22.51,0,0,1-10.23-1.13,18.86,18.86,0,0,1-5.95-3.58c-.44-.4-.9-.85-1.28-1.24l-.49-.54-1-1.08a104.47,104.47,0,0,1-13.28-18.38,147.9,147.9,0,0,1-9.55-19.63,202.77,202.77,0,0,1-7-20.23c-1-3.42-1.86-6.85-2.69-10.32s-1.52-6.8-2.16-10.76Z"
        transform="translate(-104.2 -882.52)" />
    <path class="cls-7"
        d="M564.16,1172.4c9.82,2.22,27,37.67,27,37.67l-38.54,26.11s-15.59-26.61-12.46-39.31C543.4,1183.64,553,1169.86,564.16,1172.4Z"
        transform="translate(-104.2 -882.52)" />
    <path class="cls-25" d="M659,1238.65l22.38-12.35-4.68,23.6s-14.49,4.59-21.53-2.27Z"
        transform="translate(-104.2 -882.52)" />
    <polygon class="cls-25"
        points="596.85 346.94 591.85 366.49 572.52 367.38 577.21 343.78 596.85 346.94" />
    <path class="cls-21"
        d="M710.46,1270.14l-3.71-17.44a19.45,19.45,0,0,0-21.81-15,16.91,16.91,0,0,0-14.05,20.48l3.7,17.44-3.85.82L667,1259a20.86,20.86,0,0,1,17.3-25.2,23.46,23.46,0,0,1,26.28,18.09l3.7,17.43Z"
        transform="translate(-104.2 -882.52)" />
    <g class="cls-28">
        <path class="cls-9"
            d="M710.46,1270.14l-3.71-17.44a19.45,19.45,0,0,0-21.81-15,16.91,16.91,0,0,0-14.05,20.48l3.7,17.44-3.85.82L667,1259a20.86,20.86,0,0,1,17.3-25.2,23.46,23.46,0,0,1,26.28,18.09l3.7,17.43Z"
            transform="translate(-104.2 -882.52)" />
    </g>
    <polygon class="cls-7"
        points="629.3 375.96 514.63 394.12 532.29 530.77 548.68 524.19 566.3 525.39 654.74 511.38 629.3 375.96" />
    <polygon class="cls-15"
        points="629.3 375.96 514.63 394.12 532.29 530.77 548.68 524.19 566.3 525.39 654.74 511.38 629.3 375.96" />
    <polygon class="cls-7"
        points="566.3 525.39 548.68 524.19 532.29 530.77 514.63 394.12 540.87 389.96 566.3 525.39" />
    <polygon class="cls-13"
        points="566.3 525.39 548.68 524.19 532.29 530.77 514.63 394.12 540.87 389.96 566.3 525.39" />
    <rect class="cls-9" height="9.76" rx="1.51" transform="translate(-303.01 -756.8) rotate(-9)" width="57.35" x="670.64"
        y="1321.06" />
</svg>
